<svg width="200" height="45" viewBox="0 0 200 45" fill="none" xmlns="http://www.w3.org/2000/svg">
<path d="M105.094 1.68032H200V0.00717163H105.094V1.68032Z" fill="black"/>
<path d="M105.094 44.9827H200V43.3096H105.094V44.9827Z" fill="black"/>
<path d="M118.273 28.3427V33.1411C118.273 37.2336 116.258 39.2569 112.183 39.2569H111.152C107.123 39.2569 105.155 37.2336 105.155 33.2344V28.6483H108.809V33.3765C108.809 35.0697 109.606 35.869 111.293 35.869H112.041C113.729 35.869 114.525 35.0697 114.525 33.3765V28.4359C114.525 26.7901 113.963 26.0841 112.884 25.2848L108.295 21.9442C105.858 20.2036 105.155 18.5104 105.155 15.8285V11.8781C105.155 7.7856 107.17 5.76232 111.245 5.76232H112.183C116.211 5.76232 118.178 7.7856 118.178 11.7834V14.6059H114.525V11.6427C114.525 9.94807 113.729 9.1488 112.041 9.1488H111.385C109.699 9.1488 108.903 9.94807 108.903 11.6427V15.7826C108.903 17.4285 109.512 18.1344 110.589 18.9337L115.135 22.2269C117.523 23.9675 118.273 25.5201 118.273 28.3427Z" fill="black"/>
<path d="M124.024 38.9743V9.52488H119.106V6.04369H132.691V9.52488H127.772V38.9743H124.024Z" fill="black"/>
<path d="M147.472 33.1408C147.472 37.2333 145.457 39.2566 141.382 39.2566H140.21C136.135 39.2566 134.12 37.2333 134.12 33.1408V6.04327H137.868V33.3288C137.868 35.0235 138.664 35.8228 140.351 35.8228H141.242C142.928 35.8228 143.724 35.0235 143.724 33.3288V6.04327H147.472V33.1408Z" fill="black"/>
<path d="M153.609 35.54H155.858C158.388 35.54 159.559 34.27 159.559 31.7302V13.2882C159.559 10.7483 158.388 9.47841 155.858 9.47841H153.609V35.54ZM149.861 6.04458H156.046C160.964 6.04458 163.306 8.39646 163.306 13.3356V31.6828C163.306 36.6219 160.964 38.9738 156.046 38.9738H149.861V6.04458Z" fill="black"/>
<path d="M169.31 38.9746H165.562V6.04401H169.31V38.9746Z" fill="black"/>
<path d="M178.919 9.19573H177.795C176.108 9.19573 175.313 9.99643 175.313 11.6897V33.3287C175.313 35.0234 176.108 35.8226 177.795 35.8226H178.919C180.605 35.8226 181.401 35.0234 181.401 33.3287V11.6897C181.401 9.99643 180.605 9.19573 178.919 9.19573ZM179.059 39.2565H177.655C173.579 39.2565 171.565 37.2346 171.565 33.1407V11.8776C171.565 7.78517 173.579 5.76189 177.655 5.76189H179.059C183.136 5.76189 185.149 7.78517 185.149 11.8776V33.1407C185.149 37.2346 183.136 39.2565 179.059 39.2565" fill="black"/>
<path d="M199.919 28.3427V33.1411C199.919 37.2336 197.904 39.2569 193.829 39.2569H192.799C188.769 39.2569 186.801 37.2336 186.801 33.2344V28.6483H190.455V33.3765C190.455 35.0697 191.253 35.869 192.939 35.869H193.687C195.375 35.869 196.171 35.0697 196.171 33.3765V28.4359C196.171 26.7901 195.609 26.0841 194.53 25.2848L189.941 21.9442C187.504 20.2036 186.801 18.5104 186.801 15.8285V11.8781C186.801 7.7856 188.816 5.76232 192.892 5.76232H193.829C197.857 5.76232 199.826 7.7856 199.826 11.7834V14.6059H196.171V11.6427C196.171 9.94807 195.375 9.1488 193.687 9.1488H193.032C191.345 9.1488 190.55 9.94807 190.55 11.6427V15.7826C190.55 17.4285 191.158 18.1344 192.236 18.9337L196.781 22.2269C199.169 23.9675 199.919 25.5201 199.919 28.3427Z" fill="black"/>
<path d="M0 45H99.4842V0H0V45Z" fill="#E50B14"/>
<path d="M84.3116 12.0394H79.0017V19.4781H84.3116V25.4906H79.0017V33.0413H84.3116V38.9647H73.1303V9.1178L68.4163 38.9647L61.5189 38.9834C61.5189 38.9834 58.0009 17.8466 57.9952 17.8021V17.8036C58.5639 21.2187 56.4262 24.786 54.5358 26.1937L58.2681 38.9647H58.2624H58.2524L58.2553 38.9719H58.2453H52.4624H52.4567L49.6103 28.0735L48.2385 28.2758V38.9647H48.2285H48.2214V38.9719H48.2157L37.003 38.9647L36.3142 33.8994H31.716L31.0244 38.9647H19.6059V23.0928L16.9495 38.9647H13.8016L11.1067 23.0928V38.9647H5.18237V6.03553H12.7042L15.3448 23.0483L18.0555 6.03553H25.573V36.3187L30.0956 6.03123L37.9518 6.03553L42.3257 35.2683L42.3485 6.03553C42.3485 6.03553 48.3171 6.03266 48.3529 6.03553C53.7584 6.03553 56.2133 10.0175 56.9064 11.3893L56.2348 6.03553H62.2319L64.9383 26.0904L67.6761 6.03553H84.3116V12.0394Z" fill="white"/>
<path d="M48.2673 11.8957C48.2544 11.8957 48.2444 11.8957 48.2387 11.8957V22.4857C48.7017 22.4857 49.1747 22.3752 49.6305 22.1556C51.0122 21.4798 52.1882 19.798 52.1882 17.1333C52.1882 12.0335 48.7303 11.8914 48.2673 11.8957Z" fill="#E50B14"/>
<path d="M32.4131 28.6559H35.7268L34.0393 14.5762L32.4131 28.6559Z" fill="#E50B14"/>
<path d="M96.2434 38.9576H85.335V6.02978H91.2093V33.0355H96.2434V38.9576Z" fill="white"/>
</svg>
