<svg width="41" height="29" viewBox="0 0 41 29" fill="none" xmlns="http://www.w3.org/2000/svg">
<path d="M11.0376 14.0541C11.0368 13.5646 11.1349 13.0798 11.3265 12.6273C11.5181 12.1749 11.7993 11.7637 12.1541 11.4173C12.5089 11.0709 12.9302 10.7961 13.3941 10.6086C13.8579 10.4211 14.3552 10.3246 14.8573 10.3246H14.8357C15.3379 10.3246 15.8351 10.4211 16.299 10.6086C16.7628 10.7961 17.1842 11.0709 17.539 11.4173C17.8937 11.7637 18.175 12.1749 18.3665 12.6273C18.5581 13.0798 18.6563 13.5646 18.6554 14.0541V14.0541C18.6554 15.0415 18.253 15.9885 17.5367 16.6867C16.8203 17.385 15.8488 17.7772 14.8357 17.7772H14.8573C13.8443 17.7772 12.8727 17.385 12.1564 16.6867C11.4401 15.9885 11.0376 15.0415 11.0376 14.0541ZM28.9084 7.45265H36.0203C37.0334 7.45265 38.0049 7.06039 38.7213 6.36216C39.4376 5.66393 39.8401 4.71693 39.8401 3.72949V3.72949C39.8409 3.24002 39.7427 2.7552 39.5512 2.30275C39.3596 1.85031 39.0784 1.43912 38.7236 1.09272C38.3688 0.746326 37.9474 0.471514 37.4836 0.284013C37.0197 0.0965109 36.5225 -7.05439e-07 36.0203 0L28.9084 0C28.4062 -7.05439e-07 27.909 0.0965109 27.4451 0.284013C26.9813 0.471514 26.5599 0.746326 26.2051 1.09272C25.8503 1.43912 25.5691 1.85031 25.3775 2.30275C25.186 2.7552 25.0878 3.24002 25.0886 3.72949V3.72949C25.0886 4.71693 25.4911 5.66393 26.2074 6.36216C26.9237 7.06039 27.8953 7.45265 28.9084 7.45265V7.45265ZM4.4812 28.1018H18.2944C19.3075 28.1018 20.279 27.7095 20.9954 27.0113C21.7117 26.3131 22.1141 25.3661 22.1141 24.3786V24.3786C22.115 23.8892 22.0168 23.4043 21.8253 22.9519C21.6337 22.4994 21.3525 22.0883 20.9977 21.7419C20.6429 21.3955 20.2215 21.1206 19.7577 20.9331C19.2938 20.7456 18.7966 20.6491 18.2944 20.6491H4.4812C3.97904 20.6491 3.48181 20.7456 3.01795 20.9331C2.5541 21.1206 2.13273 21.3955 1.77795 21.7419C1.42317 22.0883 1.14195 22.4994 0.950374 22.9519C0.758797 23.4043 0.660626 23.8892 0.661479 24.3786V24.3786C0.661479 25.3661 1.06391 26.3131 1.78025 27.0113C2.49658 27.7095 3.46814 28.1018 4.4812 28.1018V28.1018ZM22.6221 17.7772H23.9732L27.1293 10.3246H25.3243L23.4004 15.2129H23.3787L21.4873 10.3246H19.5633L22.6221 17.7772ZM29.6368 17.7772H31.323V10.3246H29.6368V17.7772ZM34.4358 17.7772H39.8292V16.2665H36.1219V14.7494H39.4401V13.2323H36.1219V11.8416H39.6347V10.3246H34.4466L34.4358 17.7772ZM2.18331 7.45897H3.86944V1.45387H6.05275V0H0V1.45387H2.18331V7.45897ZM8.43061 7.45897H10.1167V4.23518H13.3809V7.45897H15.067V0H13.3809V2.78131H10.1059V0H8.43061V7.45897ZM17.3476 7.45897H22.7518V5.94189H19.0229V4.42481H22.3411V2.90774H19.0229V1.51708H22.5357V0H17.3476V7.45897ZM0.270212 17.7835H1.94553V12.0629H1.96714L3.91267 17.7835H5.18807L7.19845 12.0629H7.22006V17.7835H8.90619V10.3246H6.36619L4.5936 15.1919H4.57199L2.8102 10.3246H0.259403L0.270212 17.7835ZM24.5007 28.1081H27.2374C27.7917 28.1109 28.3432 28.0291 28.8716 27.8658C29.3703 27.714 29.8358 27.4732 30.2443 27.1557C30.6415 26.8406 30.9638 26.4452 31.1889 25.9968C31.4384 25.4998 31.5657 24.953 31.5608 24.3997C31.5784 23.8007 31.4541 23.2059 31.1976 22.6614C30.9722 22.2024 30.6371 21.8028 30.2205 21.4962C29.7842 21.1913 29.2894 20.9749 28.7657 20.8598C28.1951 20.7209 27.6093 20.6501 27.0212 20.6491H24.4899L24.5007 28.1081ZM26.1889 22.1662H27.1833C27.5243 22.165 27.8639 22.209 28.1928 22.2969C28.4952 22.377 28.7796 22.5113 29.0316 22.693C29.271 22.8706 29.4648 23.1 29.5979 23.363C29.7464 23.6593 29.8205 23.9857 29.8141 24.3154C29.8234 24.6833 29.7496 25.0487 29.5979 25.3858C29.4687 25.6636 29.2703 25.9055 29.0208 26.0895C28.7625 26.2742 28.4683 26.4054 28.1561 26.4751C27.8017 26.5547 27.4389 26.5936 27.0752 26.591H26.1781L26.1889 22.1662ZM34.0013 28.1081H37.1358C37.4794 28.1074 37.822 28.0721 38.1583 28.0028C38.4841 27.9394 38.7964 27.8218 39.0813 27.6551C39.3518 27.4977 39.5812 27.2814 39.7514 27.023C39.9337 26.7256 40.0238 26.3831 40.0108 26.0369C40.0127 25.807 39.9724 25.5787 39.8919 25.3626C39.8173 25.1586 39.7019 24.971 39.5525 24.8106C39.4021 24.65 39.2226 24.5178 39.0229 24.4208C38.8075 24.3135 38.5751 24.2423 38.3355 24.2101V24.189C38.7068 24.0849 39.0393 23.8786 39.2931 23.5948C39.5417 23.2985 39.6702 22.9237 39.6541 22.5413C39.6714 22.198 39.5849 21.8574 39.4055 21.5615C39.2446 21.3179 39.021 21.1196 38.757 20.9863C38.4747 20.8457 38.1699 20.753 37.8556 20.7123C37.5239 20.6679 37.1895 20.6454 36.8548 20.6449H34.0013V28.1081ZM35.6874 22.0398H36.8331C36.9672 22.0405 37.101 22.0525 37.233 22.0756C37.3613 22.0974 37.4853 22.1386 37.6005 22.1978C37.7085 22.2539 37.8 22.3358 37.8664 22.4359C37.9387 22.5511 37.974 22.6846 37.968 22.8194C37.9718 22.9513 37.9406 23.082 37.8772 23.1987C37.8188 23.3015 37.7348 23.3885 37.633 23.4515C37.5291 23.5166 37.4142 23.5629 37.2936 23.5885C37.1673 23.6162 37.0383 23.6304 36.9088 23.6306H35.668L35.6874 22.0398ZM35.6874 25.0213H36.9628C37.1111 25.022 37.2592 25.0326 37.406 25.0529C37.5547 25.0726 37.7001 25.1116 37.8383 25.1688C37.9714 25.222 38.0888 25.3067 38.1799 25.4153C38.2729 25.5366 38.3202 25.6854 38.3139 25.8367C38.3194 25.9802 38.2842 26.1223 38.2123 26.2476C38.146 26.3573 38.0551 26.4509 37.9464 26.5215C37.8368 26.5926 37.7143 26.6427 37.5854 26.669C37.4554 26.6963 37.3228 26.7104 37.1898 26.7111H35.6766L35.6874 25.0213Z" fill="black"/>
</svg>
