<svg width="22" height="20" viewBox="0 0 22 20" fill="none" xmlns="http://www.w3.org/2000/svg">
<path d="M9.36333 1.92146L1.25653 15.4551C1.08938 15.7446 1.00094 16.0728 1.00001 16.407C0.999072 16.7412 1.08567 17.0699 1.25119 17.3603C1.41671 17.6507 1.65538 17.8927 1.94346 18.0622C2.23153 18.2317 2.55897 18.3228 2.8932 18.3265H19.1068C19.441 18.3228 19.7685 18.2317 20.0565 18.0622C20.3446 17.8927 20.5833 17.6507 20.7488 17.3603C20.9143 17.0699 21.0009 16.7412 21 16.407C20.9991 16.0728 20.9106 15.7446 20.7435 15.4551L12.6367 1.92146C12.466 1.64017 12.2258 1.4076 11.9391 1.2462C11.6524 1.08479 11.329 1 11 1C10.671 1 10.3476 1.08479 10.0609 1.2462C9.7742 1.4076 9.53395 1.64017 9.36333 1.92146V1.92146Z" stroke="black" stroke-width="2" stroke-linecap="round" stroke-linejoin="round"/>
<path d="M11 6.84106V10.6695" stroke="black" stroke-width="2" stroke-linecap="round" stroke-linejoin="round"/>
<path d="M11 14.498H11.01" stroke="black" stroke-width="2" stroke-linecap="round" stroke-linejoin="round"/>
</svg>
