<svg width="73" height="106" viewBox="0 0 73 106" fill="none" xmlns="http://www.w3.org/2000/svg">
<path d="M2.88184 20.0645C2.88184 15.6442 4.63778 11.405 7.76339 8.27938C10.889 5.15377 15.1282 3.39783 19.5485 3.39783H36.2151V36.7311H19.5485C15.1282 36.7311 10.889 34.9752 7.76339 31.8496C4.63778 28.724 2.88184 24.4848 2.88184 20.0645Z" stroke="black" stroke-width="5" stroke-linecap="round" stroke-linejoin="round"/>
<path d="M36.2148 3.39783H52.8815C55.0702 3.39783 57.2375 3.82892 59.2595 4.6665C61.2816 5.50408 63.119 6.73173 64.6666 8.27938C66.2142 9.82702 67.4419 11.6643 68.2795 13.6864C69.1171 15.7085 69.5482 17.8758 69.5482 20.0645C69.5482 22.2532 69.1171 24.4204 68.2795 26.4425C67.4419 28.4646 66.2142 30.3019 64.6666 31.8496C63.119 33.3972 61.2816 34.6249 59.2595 35.4625C57.2375 36.3 55.0702 36.7311 52.8815 36.7311H36.2148V3.39783Z" stroke="black" stroke-width="5" stroke-linecap="round" stroke-linejoin="round"/>
<path d="M36.2148 53.3977C36.2148 51.209 36.6459 49.0418 37.4835 47.0197C38.3211 44.9976 39.5488 43.1603 41.0964 41.6126C42.644 40.065 44.4814 38.8373 46.5034 37.9998C48.5255 37.1622 50.6928 36.7311 52.8815 36.7311C55.0702 36.7311 57.2375 37.1622 59.2595 37.9998C61.2816 38.8373 63.119 40.065 64.6666 41.6126C66.2142 43.1603 67.4419 44.9976 68.2795 47.0197C69.1171 49.0418 69.5482 51.209 69.5482 53.3977C69.5482 55.5864 69.1171 57.7537 68.2795 59.7758C67.4419 61.7979 66.2142 63.6352 64.6666 65.1828C63.119 66.7305 61.2816 67.9581 59.2595 68.7957C57.2375 69.6333 55.0702 70.0644 52.8815 70.0644C50.6928 70.0644 48.5255 69.6333 46.5034 68.7957C44.4814 67.9581 42.644 66.7305 41.0964 65.1828C39.5488 63.6352 38.3211 61.7979 37.4835 59.7758C36.6459 57.7537 36.2148 55.5864 36.2148 53.3977V53.3977Z" stroke="black" stroke-width="5" stroke-linecap="round" stroke-linejoin="round"/>
<path d="M2.88184 86.7312C2.88184 82.311 4.63778 78.0717 7.76339 74.9461C10.889 71.8205 15.1282 70.0646 19.5485 70.0646H36.2151V86.7312C36.2151 91.1515 34.4592 95.3907 31.3336 98.5163C28.208 101.642 23.9688 103.398 19.5485 103.398C15.1282 103.398 10.889 101.642 7.76339 98.5163C4.63778 95.3907 2.88184 91.1515 2.88184 86.7312Z" stroke="black" stroke-width="5" stroke-linecap="round" stroke-linejoin="round"/>
<path d="M2.88184 53.3977C2.88184 48.9775 4.63778 44.7382 7.76339 41.6126C10.889 38.487 15.1282 36.7311 19.5485 36.7311H36.2151V70.0644H19.5485C15.1282 70.0644 10.889 68.3084 7.76339 65.1828C4.63778 62.0572 2.88184 57.818 2.88184 53.3977Z" stroke="black" stroke-width="5" stroke-linecap="round" stroke-linejoin="round"/>
</svg>
